<svg version="1.1" viewBox="0.0 0.0 600.0 371.0" fill="none" stroke="none" stroke-linecap="square" stroke-miterlimit="10" width="600" height="371" xmlns:xlink="http://www.w3.org/1999/xlink" xmlns="http://www.w3.org/2000/svg"><path fill="#ffffff" d="M0 0L600.0 0L600.0 371.0L0 371.0L0 0Z" fill-rule="nonzero"/><path stroke="#cccccc" stroke-width="1.0" stroke-linecap="butt" d="M102.5 88.5L102.5 300.5" fill-rule="nonzero"/><path stroke="#cccccc" stroke-width="1.0" stroke-linecap="butt" d="M198.5 88.5L198.5 300.5" fill-rule="nonzero"/><path stroke="#cccccc" stroke-width="1.0" stroke-linecap="butt" d="M294.5 88.5L294.5 300.5" fill-rule="nonzero"/><path stroke="#cccccc" stroke-width="1.0" stroke-linecap="butt" d="M390.5 88.5L390.5 300.5" fill-rule="nonzero"/><path stroke="#cccccc" stroke-width="1.0" stroke-linecap="butt" d="M485.5 88.5L485.5 300.5" fill-rule="nonzero"/><path stroke="#cccccc" stroke-width="1.0" stroke-linecap="butt" d="M581.5 88.5L581.5 300.5" fill-rule="nonzero"/><path stroke="#333333" stroke-width="1.0" stroke-linecap="butt" d="M45.5 300.5L581.5 300.5" fill-rule="nonzero"/><path stroke="#cccccc" stroke-width="1.0" stroke-linecap="butt" d="M45.5 247.5L581.5 247.5" fill-rule="nonzero"/><path stroke="#cccccc" stroke-width="1.0" stroke-linecap="butt" d="M45.5 194.5L581.5 194.5" fill-rule="nonzero"/><path stroke="#cccccc" stroke-width="1.0" stroke-linecap="butt" d="M45.5 141.5L581.5 141.5" fill-rule="nonzero"/><path stroke="#cccccc" stroke-width="1.0" stroke-linecap="butt" d="M45.5 88.5L581.5 88.5" fill-rule="nonzero"/><clipPath id="id_0"><path d="M45.55 88.28333L581.45 88.28333L581.45 300.45L45.55 300.45L45.55 88.28333Z" clip-rule="nonzero"/></clipPath><path stroke="#4285f4" stroke-width="2.0" stroke-linecap="butt" clip-path="url(#id_0)" d="M45.55 299.6544L83.828575 297.2675L122.10714 292.73245L160.38571 290.82294L198.66429 285.8105L236.94286 277.0321L275.22144 271.46274L313.5 261.91522L351.77856 253.24292L390.05713 237.51607L428.33572 223.40698L466.6143 199.29955L504.89285 187.68341L543.17145 157.21098L581.45 120.93048" fill-rule="nonzero"/><path stroke="#ea4335" stroke-width="2.0" stroke-linecap="butt" clip-path="url(#id_0)" d="M45.55 300.45L83.828575 299.38916L122.10714 300.13174L160.38571 299.97263L198.66429 299.73395L236.94286 299.36264L275.22144 299.0444L313.5 298.62006L351.77856 298.11618L390.05713 297.61227L428.33572 296.68405L466.6143 295.8619L504.89285 295.30496L543.17145 294.56238L581.45 293.52808" fill-rule="nonzero"/><path fill="#000000" fill-opacity="0.0" clip-path="url(#id_0)" d="M48.55 299.6544C48.55 301.31122 47.206856 302.6544 45.55 302.6544C43.893147 302.6544 42.55 301.31122 42.55 299.6544C42.55 297.99753 43.893147 296.6544 45.55 296.6544C47.206856 296.6544 48.55 297.99753 48.55 299.6544Z" fill-rule="nonzero"/><path fill="#000000" fill-opacity="0.0" clip-path="url(#id_0)" d="M86.828575 297.2675C86.828575 298.92435 85.48543 300.2675 83.828575 300.2675C82.171715 300.2675 80.828575 298.92435 80.828575 297.2675C80.828575 295.61066 82.171715 294.2675 83.828575 294.2675C85.48543 294.2675 86.828575 295.61066 86.828575 297.2675Z" fill-rule="nonzero"/><path fill="#000000" fill-opacity="0.0" clip-path="url(#id_0)" d="M125.10714 292.73245C125.10714 294.38928 123.764 295.73245 122.10714 295.73245C120.45029 295.73245 119.10714 294.38928 119.10714 292.73245C119.10714 291.0756 120.45029 289.73245 122.10714 289.73245C123.764 289.73245 125.10714 291.0756 125.10714 292.73245Z" fill-rule="nonzero"/><path fill="#000000" fill-opacity="0.0" clip-path="url(#id_0)" d="M163.38571 290.82294C163.38571 292.4798 162.04257 293.82294 160.38571 293.82294C158.72887 293.82294 157.38571 292.4798 157.38571 290.82294C157.38571 289.16608 158.72887 287.82294 160.38571 287.82294C162.04257 287.82294 163.38571 289.16608 163.38571 290.82294Z" fill-rule="nonzero"/><path fill="#000000" fill-opacity="0.0" clip-path="url(#id_0)" d="M201.66429 285.8105C201.66429 287.46735 200.32114 288.8105 198.66429 288.8105C197.00743 288.8105 195.66429 287.46735 195.66429 285.8105C195.66429 284.15366 197.00743 282.8105 198.66429 282.8105C200.32114 282.8105 201.66429 284.15366 201.66429 285.8105Z" fill-rule="nonzero"/><path fill="#000000" fill-opacity="0.0" clip-path="url(#id_0)" d="M239.94286 277.0321C239.94286 278.68896 238.59972 280.0321 236.94286 280.0321C235.286 280.0321 233.94286 278.68896 233.94286 277.0321C233.94286 275.37524 235.286 274.0321 236.94286 274.0321C238.59972 274.0321 239.94286 275.37524 239.94286 277.0321Z" fill-rule="nonzero"/><path fill="#000000" fill-opacity="0.0" clip-path="url(#id_0)" d="M278.22144 271.46274C278.22144 273.1196 276.8783 274.46274 275.22144 274.46274C273.56458 274.46274 272.22144 273.1196 272.22144 271.46274C272.22144 269.80588 273.56458 268.46274 275.22144 268.46274C276.8783 268.46274 278.22144 269.80588 278.22144 271.46274Z" fill-rule="nonzero"/><path fill="#000000" fill-opacity="0.0" clip-path="url(#id_0)" d="M316.5 261.91522C316.5 263.57208 315.15686 264.91522 313.5 264.91522C311.84314 264.91522 310.5 263.57208 310.5 261.91522C310.5 260.25836 311.84314 258.91522 313.5 258.91522C315.15686 258.91522 316.5 260.25836 316.5 261.91522Z" fill-rule="nonzero"/><path fill="#000000" fill-opacity="0.0" clip-path="url(#id_0)" d="M354.77856 253.24292C354.77856 254.89977 353.43542 256.24292 351.77856 256.24292C350.1217 256.24292 348.77856 254.89977 348.77856 253.24292C348.77856 251.58606 350.1217 250.24292 351.77856 250.24292C353.43542 250.24292 354.77856 251.58606 354.77856 253.24292Z" fill-rule="nonzero"/><path fill="#000000" fill-opacity="0.0" clip-path="url(#id_0)" d="M393.05713 237.51607C393.05713 239.17291 391.714 240.51607 390.05713 240.51607C388.4003 240.51607 387.05713 239.17291 387.05713 237.51607C387.05713 235.8592 388.4003 234.51607 390.05713 234.51607C391.714 234.51607 393.05713 235.8592 393.05713 237.51607Z" fill-rule="nonzero"/><path fill="#000000" fill-opacity="0.0" clip-path="url(#id_0)" d="M431.33572 223.40698C431.33572 225.06383 429.99255 226.40698 428.33572 226.40698C426.67886 226.40698 425.33572 225.06383 425.33572 223.40698C425.33572 221.75012 426.67886 220.40698 428.33572 220.40698C429.99255 220.40698 431.33572 221.75012 431.33572 223.40698Z" fill-rule="nonzero"/><path fill="#000000" fill-opacity="0.0" clip-path="url(#id_0)" d="M469.6143 199.29955C469.6143 200.95639 468.27115 202.29955 466.6143 202.29955C464.95743 202.29955 463.6143 200.95639 463.6143 199.29955C463.6143 197.64268 464.95743 196.29955 466.6143 196.29955C468.27115 196.29955 469.6143 197.64268 469.6143 199.29955Z" fill-rule="nonzero"/><path fill="#000000" fill-opacity="0.0" clip-path="url(#id_0)" d="M507.89285 187.68341C507.89285 189.34027 506.5497 190.68341 504.89285 190.68341C503.236 190.68341 501.89285 189.34027 501.89285 187.68341C501.89285 186.02657 503.236 184.68341 504.89285 184.68341C506.5497 184.68341 507.89285 186.02657 507.89285 187.68341Z" fill-rule="nonzero"/><path fill="#000000" fill-opacity="0.0" clip-path="url(#id_0)" d="M546.17145 157.21098C546.17145 158.86783 544.8283 160.21098 543.17145 160.21098C541.5146 160.21098 540.17145 158.86783 540.17145 157.21098C540.17145 155.55412 541.5146 154.21098 543.17145 154.21098C544.8283 154.21098 546.17145 155.55412 546.17145 157.21098Z" fill-rule="nonzero"/><path fill="#000000" fill-opacity="0.0" clip-path="url(#id_0)" d="M584.45 120.93048C584.45 122.58733 583.1069 123.93048 581.45 123.93048C579.79315 123.93048 578.45 122.58733 578.45 120.93048C578.45 119.27363 579.79315 117.93048 581.45 117.93048C583.1069 117.93048 584.45 119.27363 584.45 120.93048Z" fill-rule="nonzero"/><path fill="#000000" fill-opacity="0.0" clip-path="url(#id_0)" d="M48.55 300.45C48.55 302.10684 47.206856 303.45 45.55 303.45C43.893147 303.45 42.55 302.10684 42.55 300.45C42.55 298.79315 43.893147 297.45 45.55 297.45C47.206856 297.45 48.55 298.79315 48.55 300.45Z" fill-rule="nonzero"/><path fill="#000000" fill-opacity="0.0" clip-path="url(#id_0)" d="M86.828575 299.38916C86.828575 301.04602 85.48543 302.38916 83.828575 302.38916C82.171715 302.38916 80.828575 301.04602 80.828575 299.38916C80.828575 297.7323 82.171715 296.38916 83.828575 296.38916C85.48543 296.38916 86.828575 297.7323 86.828575 299.38916Z" fill-rule="nonzero"/><path fill="#000000" fill-opacity="0.0" clip-path="url(#id_0)" d="M125.10714 300.13174C125.10714 301.7886 123.764 303.13174 122.10714 303.13174C120.45029 303.13174 119.10714 301.7886 119.10714 300.13174C119.10714 298.47488 120.45029 297.13174 122.10714 297.13174C123.764 297.13174 125.10714 298.47488 125.10714 300.13174Z" fill-rule="nonzero"/><path fill="#000000" fill-opacity="0.0" clip-path="url(#id_0)" d="M163.38571 299.97263C163.38571 301.6295 162.04257 302.97263 160.38571 302.97263C158.72887 302.97263 157.38571 301.6295 157.38571 299.97263C157.38571 298.31577 158.72887 296.97263 160.38571 296.97263C162.04257 296.97263 163.38571 298.31577 163.38571 299.97263Z" fill-rule="nonzero"/><path fill="#000000" fill-opacity="0.0" clip-path="url(#id_0)" d="M201.66429 299.73395C201.66429 301.39078 200.32114 302.73395 198.66429 302.73395C197.00743 302.73395 195.66429 301.39078 195.66429 299.73395C195.66429 298.0771 197.00743 296.73395 198.66429 296.73395C200.32114 296.73395 201.66429 298.0771 201.66429 299.73395Z" fill-rule="nonzero"/><path fill="#000000" fill-opacity="0.0" clip-path="url(#id_0)" d="M239.94286 299.36264C239.94286 301.0195 238.59972 302.36264 236.94286 302.36264C235.286 302.36264 233.94286 301.0195 233.94286 299.36264C233.94286 297.70578 235.286 296.36264 236.94286 296.36264C238.59972 296.36264 239.94286 297.70578 239.94286 299.36264Z" fill-rule="nonzero"/><path fill="#000000" fill-opacity="0.0" clip-path="url(#id_0)" d="M278.22144 299.0444C278.22144 300.70126 276.8783 302.0444 275.22144 302.0444C273.56458 302.0444 272.22144 300.70126 272.22144 299.0444C272.22144 297.38754 273.56458 296.0444 275.22144 296.0444C276.8783 296.0444 278.22144 297.38754 278.22144 299.0444Z" fill-rule="nonzero"/><path fill="#000000" fill-opacity="0.0" clip-path="url(#id_0)" d="M316.5 298.62006C316.5 300.27692 315.15686 301.62006 313.5 301.62006C311.84314 301.62006 310.5 300.27692 310.5 298.62006C310.5 296.9632 311.84314 295.62006 313.5 295.62006C315.15686 295.62006 316.5 296.9632 316.5 298.62006Z" fill-rule="nonzero"/><path fill="#000000" fill-opacity="0.0" clip-path="url(#id_0)" d="M354.77856 298.11618C354.77856 299.773 353.43542 301.11618 351.77856 301.11618C350.1217 301.11618 348.77856 299.773 348.77856 298.11618C348.77856 296.45932 350.1217 295.11618 351.77856 295.11618C353.43542 295.11618 354.77856 296.45932 354.77856 298.11618Z" fill-rule="nonzero"/><path fill="#000000" fill-opacity="0.0" clip-path="url(#id_0)" d="M393.05713 297.61227C393.05713 299.26913 391.714 300.61227 390.05713 300.61227C388.4003 300.61227 387.05713 299.26913 387.05713 297.61227C387.05713 295.9554 388.4003 294.61227 390.05713 294.61227C391.714 294.61227 393.05713 295.9554 393.05713 297.61227Z" fill-rule="nonzero"/><path fill="#000000" fill-opacity="0.0" clip-path="url(#id_0)" d="M431.33572 296.68405C431.33572 298.34088 429.99255 299.68405 428.33572 299.68405C426.67886 299.68405 425.33572 298.34088 425.33572 296.68405C425.33572 295.0272 426.67886 293.68405 428.33572 293.68405C429.99255 293.68405 431.33572 295.0272 431.33572 296.68405Z" fill-rule="nonzero"/><path fill="#000000" fill-opacity="0.0" clip-path="url(#id_0)" d="M469.6143 295.8619C469.6143 297.51874 468.27115 298.8619 466.6143 298.8619C464.95743 298.8619 463.6143 297.51874 463.6143 295.8619C463.6143 294.20505 464.95743 292.8619 466.6143 292.8619C468.27115 292.8619 469.6143 294.20505 469.6143 295.8619Z" fill-rule="nonzero"/><path fill="#000000" fill-opacity="0.0" clip-path="url(#id_0)" d="M507.89285 295.30496C507.89285 296.96182 506.5497 298.30496 504.89285 298.30496C503.236 298.30496 501.89285 296.96182 501.89285 295.30496C501.89285 293.6481 503.236 292.30496 504.89285 292.30496C506.5497 292.30496 507.89285 293.6481 507.89285 295.30496Z" fill-rule="nonzero"/><path fill="#000000" fill-opacity="0.0" clip-path="url(#id_0)" d="M546.17145 294.56238C546.17145 296.21924 544.8283 297.56238 543.17145 297.56238C541.5146 297.56238 540.17145 296.21924 540.17145 294.56238C540.17145 292.90552 541.5146 291.56238 543.17145 291.56238C544.8283 291.56238 546.17145 292.90552 546.17145 294.56238Z" fill-rule="nonzero"/><path fill="#000000" fill-opacity="0.0" clip-path="url(#id_0)" d="M584.45 293.52808C584.45 295.1849 583.1069 296.52808 581.45 296.52808C579.79315 296.52808 578.45 295.1849 578.45 293.52808C578.45 291.87122 579.79315 290.52808 581.45 290.52808C583.1069 290.52808 584.45 291.87122 584.45 293.52808Z" fill-rule="nonzero"/><path fill="#000000" d="M288.125 349.45L288.125 340.85626L289.25 340.85626L289.25 349.45L288.125 349.45ZM290.79688 349.45L290.79688 343.23126L291.73438 343.23126L291.73438 344.10626Q292.42188 343.09064 293.71875 343.09064Q294.28125 343.09064 294.75 343.29376Q295.23438 343.4969 295.46875 343.825Q295.70312 344.15314 295.79688 344.59064Q295.84375 344.8875 295.84375 345.6219L295.84375 349.45L294.79688 349.45L294.79688 345.66876Q294.79688 345.0125 294.67188 344.7Q294.54688 344.3875 294.23438 344.2Q293.92188 343.9969 293.5 343.9969Q292.82812 343.9969 292.32812 344.4344Q291.84375 344.85626 291.84375 346.04376L291.84375 349.45L290.79688 349.45ZM297.79688 351.84064L297.79688 343.23126L298.75 343.23126L298.75 344.02814Q299.09375 343.5594 299.51562 343.325Q299.95312 343.09064 300.5625 343.09064Q301.35938 343.09064 301.96875 343.4969Q302.57812 343.90314 302.875 344.65314Q303.1875 345.40314 303.1875 346.29376Q303.1875 347.2469 302.84375 348.0125Q302.51562 348.77814 301.85938 349.1844Q301.20312 349.59064 300.48438 349.59064Q299.95312 349.59064 299.53125 349.3719Q299.10938 349.1375 298.84375 348.8094L298.84375 351.84064L297.79688 351.84064ZM298.75 346.3719Q298.75 347.575 299.23438 348.15314Q299.71875 348.71564 300.40625 348.71564Q301.10938 348.71564 301.60938 348.1219Q302.10938 347.52814 302.10938 346.27814Q302.10938 345.09064 301.625 344.5125Q301.14062 343.91876 300.45312 343.91876Q299.78125 343.91876 299.26562 344.54376Q298.75 345.16876 298.75 346.3719ZM308.875 349.45L308.875 348.52814Q308.14062 349.59064 306.89062 349.59064Q306.34375 349.59064 305.85938 349.3875Q305.39062 349.16876 305.15625 348.85626Q304.92188 348.52814 304.82812 348.0594Q304.76562 347.7625 304.76562 347.075L304.76562 343.23126L305.82812 343.23126L305.82812 346.6844Q305.82812 347.4969 305.89062 347.79376Q305.98438 348.2 306.29688 348.45Q306.625 348.6844 307.10938 348.6844Q307.57812 348.6844 307.98438 348.45Q308.40625 348.2 308.57812 347.77814Q308.76562 347.35626 308.76562 346.5594L308.76562 343.23126L309.8125 343.23126L309.8125 349.45L308.875 349.45ZM314.09375 348.5125L314.25 349.4344Q313.79688 349.52814 313.45312 349.52814Q312.875 349.52814 312.5625 349.35626Q312.25 349.16876 312.10938 348.8719Q311.98438 348.575 311.98438 347.6219L311.98438 344.04376L311.21875 344.04376L311.21875 343.23126L311.98438 343.23126L311.98438 341.6844L313.03125 341.0594L313.03125 343.23126L314.09375 343.23126L314.09375 344.04376L313.03125 344.04376L313.03125 347.6844Q313.03125 348.1375 313.07812 348.2625Q313.14062 348.3875 313.26562 348.46564Q313.39062 348.54376 313.625 348.54376Q313.8125 348.54376 314.09375 348.5125ZM317.54688 346.6844L318.60938 346.59064Q318.6875 347.2469 318.96875 347.65314Q319.25 348.0594 319.82812 348.325Q320.42188 348.575 321.15625 348.575Q321.79688 348.575 322.29688 348.3875Q322.79688 348.1844 323.03125 347.85626Q323.28125 347.5125 323.28125 347.1219Q323.28125 346.71564 323.04688 346.41876Q322.8125 346.10626 322.28125 345.90314Q321.92188 345.7625 320.73438 345.48126Q319.5625 345.2 319.09375 344.95Q318.46875 344.6219 318.17188 344.15314Q317.875 343.66876 317.875 343.075Q317.875 342.4344 318.23438 341.8719Q318.60938 341.29376 319.3125 341.0125Q320.03125 340.71564 320.89062 340.71564Q321.84375 340.71564 322.57812 341.02814Q323.3125 341.325 323.70312 341.9344Q324.09375 342.52814 324.125 343.27814L323.03125 343.35626Q322.9375 342.54376 322.42188 342.1375Q321.92188 341.71564 320.9375 341.71564Q319.90625 341.71564 319.4375 342.09064Q318.96875 342.46564 318.96875 342.9969Q318.96875 343.46564 319.29688 343.7625Q319.625 344.0594 321.0 344.3719Q322.39062 344.6844 322.90625 344.91876Q323.65625 345.27814 324.01562 345.8094Q324.375 346.325 324.375 347.02814Q324.375 347.71564 323.98438 348.325Q323.59375 348.91876 322.85938 349.2625Q322.125 349.59064 321.20312 349.59064Q320.03125 349.59064 319.23438 349.2625Q318.45312 348.91876 318.0 348.23126Q317.5625 347.54376 317.54688 346.6844ZM325.79688 342.075L325.79688 340.85626L326.85938 340.85626L326.85938 342.075L325.79688 342.075ZM325.79688 349.45L325.79688 343.23126L326.85938 343.23126L326.85938 349.45L325.79688 349.45ZM328.23438 349.45L328.23438 348.59064L332.20312 344.04376Q331.51562 344.075 331.0 344.075L328.46875 344.075L328.46875 343.23126L333.5625 343.23126L333.5625 343.91876L330.1875 347.8719L329.53125 348.59064Q330.25 348.54376 330.85938 348.54376L333.75 348.54376L333.75 349.45L328.23438 349.45ZM338.04688 347.45L339.14062 347.575Q338.89062 348.52814 338.1875 349.0594Q337.48438 349.59064 336.40625 349.59064Q335.04688 349.59064 334.23438 348.7469Q333.4375 347.90314 333.4375 346.3875Q333.4375 344.825 334.25 343.96564Q335.0625 343.09064 336.34375 343.09064Q337.59375 343.09064 338.375 343.9344Q339.17188 344.77814 339.17188 346.325Q339.17188 346.41876 339.17188 346.60626L334.53125 346.60626Q334.59375 347.6375 335.10938 348.1844Q335.625 348.71564 336.40625 348.71564Q336.98438 348.71564 337.39062 348.41876Q337.8125 348.10626 338.04688 347.45ZM334.59375 345.7469L338.0625 345.7469Q338.0 344.95 337.67188 344.5594Q337.15625 343.95 336.35938 343.95Q335.625 343.95 335.125 344.4344Q334.64062 344.91876 334.59375 345.7469Z" fill-rule="nonzero"/><path fill="#000000" d="M33.05 300.21564Q33.05 298.6844 33.3625 297.7625Q33.675 296.825 34.284374 296.325Q34.909374 295.825 35.846874 295.825Q36.534374 295.825 37.05 296.10626Q37.58125 296.3875 37.925 296.91876Q38.26875 297.4344 38.45625 298.1844Q38.64375 298.9344 38.64375 300.21564Q38.64375 301.73126 38.33125 302.65314Q38.034374 303.575 37.409374 304.09064Q36.8 304.59064 35.846874 304.59064Q34.6125 304.59064 33.89375 303.7Q33.05 302.6375 33.05 300.21564ZM34.128124 300.21564Q34.128124 302.325 34.628124 303.02814Q35.128124 303.73126 35.846874 303.73126Q36.58125 303.73126 37.065624 303.02814Q37.565624 302.325 37.565624 300.21564Q37.565624 298.09064 37.065624 297.40314Q36.58125 296.7 35.83125 296.7Q35.1125 296.7 34.675 297.3094Q34.128124 298.09064 34.128124 300.21564Z" fill-rule="nonzero"/><path fill="#000000" d="M31.596874 250.39272L31.596874 251.40834L25.909374 251.40834Q25.909374 251.03334 26.034374 250.67397Q26.253124 250.09584 26.721874 249.53334Q27.20625 248.97084 28.1125 248.23647Q29.51875 247.08022 30.003124 246.40834Q30.503124 245.73647 30.503124 245.14272Q30.503124 244.51772 30.05 244.09584Q29.596874 243.65834 28.878124 243.65834Q28.1125 243.65834 27.659374 244.11147Q27.20625 244.56459 27.190624 245.37709L26.1125 245.26772Q26.221874 244.04897 26.940624 243.42397Q27.675 242.78334 28.909374 242.78334Q30.14375 242.78334 30.8625 243.47084Q31.58125 244.15834 31.58125 245.17397Q31.58125 245.68959 31.3625 246.18959Q31.159374 246.67397 30.659374 247.23647Q30.175 247.78334 29.05 248.73647Q28.096874 249.53334 27.815624 249.83022Q27.55 250.11147 27.378124 250.39272L31.596874 250.39272ZM33.05 247.17397Q33.05 245.64272 33.3625 244.72084Q33.675 243.78334 34.284374 243.28334Q34.909374 242.78334 35.846874 242.78334Q36.534374 242.78334 37.05 243.06459Q37.58125 243.34584 37.925 243.87709Q38.26875 244.39272 38.45625 245.14272Q38.64375 245.89272 38.64375 247.17397Q38.64375 248.68959 38.33125 249.61147Q38.034374 250.53334 37.409374 251.04897Q36.8 251.54897 35.846874 251.54897Q34.6125 251.54897 33.89375 250.65834Q33.05 249.59584 33.05 247.17397ZM34.128124 247.17397Q34.128124 249.28334 34.628124 249.98647Q35.128124 250.68959 35.846874 250.68959Q36.58125 250.68959 37.065624 249.98647Q37.565624 249.28334 37.565624 247.17397Q37.565624 245.04897 37.065624 244.36147Q36.58125 243.65834 35.83125 243.65834Q35.1125 243.65834 34.675 244.26772Q34.128124 245.04897 34.128124 247.17397Z" fill-rule="nonzero"/><path fill="#000000" d="M29.425 198.36667L29.425 196.30417L25.70625 196.30417L25.70625 195.33542L29.628124 189.77292L30.4875 189.77292L30.4875 195.33542L31.64375 195.33542L31.64375 196.30417L30.4875 196.30417L30.4875 198.36667L29.425 198.36667ZM29.425 195.33542L29.425 191.47604L26.7375 195.33542L29.425 195.33542ZM33.05 194.1323Q33.05 192.60104 33.3625 191.67917Q33.675 190.74167 34.284374 190.24167Q34.909374 189.74167 35.846874 189.74167Q36.534374 189.74167 37.05 190.02292Q37.58125 190.30417 37.925 190.83542Q38.26875 191.35104 38.45625 192.10104Q38.64375 192.85104 38.64375 194.1323Q38.64375 195.64792 38.33125 196.5698Q38.034374 197.49167 37.409374 198.0073Q36.8 198.5073 35.846874 198.5073Q34.6125 198.5073 33.89375 197.61667Q33.05 196.55417 33.05 194.1323ZM34.128124 194.1323Q34.128124 196.24167 34.628124 196.9448Q35.128124 197.64792 35.846874 197.64792Q36.58125 197.64792 37.065624 196.9448Q37.565624 196.24167 37.565624 194.1323Q37.565624 192.0073 37.065624 191.3198Q36.58125 190.61667 35.83125 190.61667Q35.1125 190.61667 34.675 191.22604Q34.128124 192.0073 34.128124 194.1323Z" fill-rule="nonzero"/><path fill="#000000" d="M31.51875 138.84062L30.471874 138.91875Q30.33125 138.29375 30.08125 138.0125Q29.64375 137.55937 29.01875 137.55937Q28.51875 137.55937 28.128124 137.84062Q27.64375 138.21562 27.346874 138.91875Q27.065624 139.60625 27.05 140.8875Q27.425 140.30937 27.971874 140.02812Q28.534374 139.74687 29.14375 139.74687Q30.190624 139.74687 30.925 140.52812Q31.675 141.30937 31.675 142.52812Q31.675 143.34062 31.315624 144.04375Q30.971874 144.73125 30.3625 145.10625Q29.753124 145.46562 28.9875 145.46562Q27.659374 145.46562 26.83125 144.49687Q26.003124 143.52812 26.003124 141.30937Q26.003124 138.80937 26.925 137.68437Q27.721874 136.7 29.08125 136.7Q30.096874 136.7 30.7375 137.27812Q31.39375 137.84062 31.51875 138.84062ZM27.221874 142.54375Q27.221874 143.09062 27.440624 143.59062Q27.675 144.075 28.08125 144.34062Q28.503124 144.60625 28.971874 144.60625Q29.628124 144.60625 30.1125 144.075Q30.596874 143.52812 30.596874 142.60625Q30.596874 141.71562 30.1125 141.2Q29.64375 140.68437 28.925 140.68437Q28.20625 140.68437 27.70625 141.2Q27.221874 141.71562 27.221874 142.54375ZM33.05 141.09062Q33.05 139.55937 33.3625 138.6375Q33.675 137.7 34.284374 137.2Q34.909374 136.7 35.846874 136.7Q36.534374 136.7 37.05 136.98125Q37.58125 137.2625 37.925 137.79375Q38.26875 138.30937 38.45625 139.05937Q38.64375 139.80937 38.64375 141.09062Q38.64375 142.60625 38.33125 143.52812Q38.034374 144.45 37.409374 144.96562Q36.8 145.46562 35.846874 145.46562Q34.6125 145.46562 33.89375 144.575Q33.05 143.5125 33.05 141.09062ZM34.128124 141.09062Q34.128124 143.2 34.628124 143.90312Q35.128124 144.60625 35.846874 144.60625Q36.58125 144.60625 37.065624 143.90312Q37.565624 143.2 37.565624 141.09062Q37.565624 138.96562 37.065624 138.27812Q36.58125 137.575 35.83125 137.575Q35.1125 137.575 34.675 138.18437Q34.128124 138.96562 34.128124 141.09062Z" fill-rule="nonzero"/><path fill="#000000" d="M27.675 87.62708Q27.01875 87.37708 26.690624 86.93958Q26.378124 86.48646 26.378124 85.87708Q26.378124 84.93958 27.05 84.29896Q27.7375 83.65833 28.846874 83.65833Q29.971874 83.65833 30.659374 84.31458Q31.346874 84.97083 31.346874 85.90833Q31.346874 86.50208 31.034374 86.93958Q30.721874 87.37708 30.08125 87.62708Q30.878124 87.87708 31.284374 88.45521Q31.690624 89.03333 31.690624 89.83021Q31.690624 90.92396 30.909374 91.67396Q30.14375 92.42396 28.8625 92.42396Q27.596874 92.42396 26.815624 91.67396Q26.034374 90.92396 26.034374 89.79896Q26.034374 88.95521 26.45625 88.39271Q26.89375 87.83021 27.675 87.62708ZM27.45625 85.83021Q27.45625 86.43958 27.846874 86.83021Q28.253124 87.22083 28.878124 87.22083Q29.4875 87.22083 29.878124 86.84583Q30.26875 86.45521 30.26875 85.89271Q30.26875 85.31458 29.8625 84.92396Q29.45625 84.51771 28.8625 84.51771Q28.253124 84.51771 27.846874 84.90833Q27.45625 85.29896 27.45625 85.83021ZM27.128124 89.79896Q27.128124 90.25208 27.33125 90.67396Q27.55 91.09583 27.971874 91.33021Q28.39375 91.56458 28.878124 91.56458Q29.628124 91.56458 30.1125 91.08021Q30.6125 90.59583 30.6125 89.84583Q30.6125 89.08021 30.1125 88.58021Q29.6125 88.08021 28.846874 88.08021Q28.096874 88.08021 27.6125 88.58021Q27.128124 89.06458 27.128124 89.79896ZM33.05 88.04896Q33.05 86.51771 33.3625 85.59583Q33.675 84.65833 34.284374 84.15833Q34.909374 83.65833 35.846874 83.65833Q36.534374 83.65833 37.05 83.93958Q37.58125 84.22083 37.925 84.75208Q38.26875 85.26771 38.45625 86.01771Q38.64375 86.76771 38.64375 88.04896Q38.64375 89.56458 38.33125 90.48646Q38.034374 91.40833 37.409374 91.92396Q36.8 92.42396 35.846874 92.42396Q34.6125 92.42396 33.89375 91.53333Q33.05 90.47083 33.05 88.04896ZM34.128124 88.04896Q34.128124 90.15833 34.628124 90.86146Q35.128124 91.56458 35.846874 91.56458Q36.58125 91.56458 37.065624 90.86146Q37.565624 90.15833 37.565624 88.04896Q37.565624 85.92396 37.065624 85.23646Q36.58125 84.53333 35.83125 84.53333Q35.1125 84.53333 34.675 85.14271Q34.128124 85.92396 34.128124 88.04896Z" fill-rule="nonzero"/><path fill="#000000" d="M95.01473 316.4344L95.01473 317.45L89.32723 317.45Q89.32723 317.075 89.45223 316.71564Q89.67098 316.1375 90.13973 315.575Q90.62411 315.0125 91.53036 314.27814Q92.93661 313.1219 93.42098 312.45Q93.92098 311.77814 93.92098 311.1844Q93.92098 310.5594 93.46786 310.1375Q93.01473 309.7 92.29598 309.7Q91.53036 309.7 91.07723 310.15314Q90.62411 310.60626 90.60848 311.41876L89.53036 311.3094Q89.63973 310.09064 90.35848 309.46564Q91.09286 308.825 92.32723 308.825Q93.56161 308.825 94.28036 309.5125Q94.99911 310.2 94.99911 311.21564Q94.99911 311.73126 94.78036 312.23126Q94.57723 312.71564 94.07723 313.27814Q93.59286 313.825 92.46786 314.77814Q91.51473 315.575 91.23348 315.8719Q90.96786 316.15314 90.79598 316.4344L95.01473 316.4344ZM96.46786 315.2L97.57723 315.10626Q97.70223 315.91876 98.13973 316.325Q98.59286 316.73126 99.23348 316.73126Q99.98348 316.73126 100.51473 316.15314Q101.04598 315.575 101.04598 314.6375Q101.04598 313.73126 100.53036 313.21564Q100.03036 312.6844 99.20223 312.6844Q98.70223 312.6844 98.28036 312.91876Q97.87411 313.15314 97.63973 313.5125L96.65536 313.3875L97.48348 308.98126L101.76473 308.98126L101.76473 309.98126L98.32723 309.98126L97.87411 312.29376Q98.63973 311.7469 99.48348 311.7469Q100.60848 311.7469 101.37411 312.52814Q102.15536 313.3094 102.15536 314.54376Q102.15536 315.7 101.48348 316.5594Q100.65536 317.59064 99.23348 317.59064Q98.06161 317.59064 97.31161 316.9344Q96.57723 316.27814 96.46786 315.2ZM103.46786 313.21564Q103.46786 311.6844 103.78036 310.7625Q104.09286 309.825 104.70223 309.325Q105.32723 308.825 106.26473 308.825Q106.95223 308.825 107.46786 309.10626Q107.99911 309.3875 108.34286 309.91876Q108.68661 310.4344 108.87411 311.1844Q109.06161 311.9344 109.06161 313.21564Q109.06161 314.73126 108.74911 315.65314Q108.45223 316.575 107.82723 317.09064Q107.21786 317.59064 106.26473 317.59064Q105.03036 317.59064 104.31161 316.7Q103.46786 315.6375 103.46786 313.21564ZM104.54598 313.21564Q104.54598 315.325 105.04598 316.02814Q105.54598 316.73126 106.26473 316.73126Q106.99911 316.73126 107.48348 316.02814Q107.98348 315.325 107.98348 313.21564Q107.98348 311.09064 107.48348 310.40314Q106.99911 309.7 106.24911 309.7Q105.53036 309.7 105.09286 310.3094Q104.54598 311.09064 104.54598 313.21564ZM110.46786 313.21564Q110.46786 311.6844 110.78036 310.7625Q111.09286 309.825 111.70223 309.325Q112.32723 308.825 113.26473 308.825Q113.95223 308.825 114.46786 309.10626Q114.99911 309.3875 115.34286 309.91876Q115.68661 310.4344 115.87411 311.1844Q116.06161 311.9344 116.06161 313.21564Q116.06161 314.73126 115.74911 315.65314Q115.45223 316.575 114.82723 317.09064Q114.21786 317.59064 113.26473 317.59064Q112.03036 317.59064 111.31161 316.7Q110.46786 315.6375 110.46786 313.21564ZM111.54598 313.21564Q111.54598 315.325 112.04598 316.02814Q112.54598 316.73126 113.26473 316.73126Q113.99911 316.73126 114.48348 316.02814Q114.98348 315.325 114.98348 313.21564Q114.98348 311.09064 114.48348 310.40314Q113.99911 309.7 113.24911 309.7Q112.53036 309.7 112.09286 310.3094Q111.54598 311.09064 111.54598 313.21564Z" fill-rule="nonzero"/><path fill="#000000" d="M185.16429 315.2L186.27367 315.10626Q186.39867 315.91876 186.83617 316.325Q187.28929 316.73126 187.92992 316.73126Q188.67992 316.73126 189.21117 316.15314Q189.74242 315.575 189.74242 314.6375Q189.74242 313.73126 189.22679 313.21564Q188.72679 312.6844 187.89867 312.6844Q187.39867 312.6844 186.97679 312.91876Q186.57054 313.15314 186.33617 313.5125L185.35179 313.3875L186.17992 308.98126L190.46117 308.98126L190.46117 309.98126L187.02367 309.98126L186.57054 312.29376Q187.33617 311.7469 188.17992 311.7469Q189.30492 311.7469 190.07054 312.52814Q190.85179 313.3094 190.85179 314.54376Q190.85179 315.7 190.17992 316.5594Q189.35179 317.59064 187.92992 317.59064Q186.75804 317.59064 186.00804 316.9344Q185.27367 316.27814 185.16429 315.2ZM192.16429 313.21564Q192.16429 311.6844 192.47679 310.7625Q192.78929 309.825 193.39867 309.325Q194.02367 308.825 194.96117 308.825Q195.64867 308.825 196.16429 309.10626Q196.69554 309.3875 197.03929 309.91876Q197.38304 310.4344 197.57054 311.1844Q197.75804 311.9344 197.75804 313.21564Q197.75804 314.73126 197.44554 315.65314Q197.14867 316.575 196.52367 317.09064Q195.91429 317.59064 194.96117 317.59064Q193.72679 317.59064 193.00804 316.7Q192.16429 315.6375 192.16429 313.21564ZM193.24242 313.21564Q193.24242 315.325 193.74242 316.02814Q194.24242 316.73126 194.96117 316.73126Q195.69554 316.73126 196.17992 316.02814Q196.67992 315.325 196.67992 313.21564Q196.67992 311.09064 196.17992 310.40314Q195.69554 309.7 194.94554 309.7Q194.22679 309.7 193.78929 310.3094Q193.24242 311.09064 193.24242 313.21564ZM199.16429 313.21564Q199.16429 311.6844 199.47679 310.7625Q199.78929 309.825 200.39867 309.325Q201.02367 308.825 201.96117 308.825Q202.64867 308.825 203.16429 309.10626Q203.69554 309.3875 204.03929 309.91876Q204.38304 310.4344 204.57054 311.1844Q204.75804 311.9344 204.75804 313.21564Q204.75804 314.73126 204.44554 315.65314Q204.14867 316.575 203.52367 317.09064Q202.91429 317.59064 201.96117 317.59064Q200.72679 317.59064 200.00804 316.7Q199.16429 315.6375 199.16429 313.21564ZM200.24242 313.21564Q200.24242 315.325 200.74242 316.02814Q201.24242 316.73126 201.96117 316.73126Q202.69554 316.73126 203.17992 316.02814Q203.67992 315.325 203.67992 313.21564Q203.67992 311.09064 203.17992 310.40314Q202.69554 309.7 201.94554 309.7Q201.22679 309.7 200.78929 310.3094Q200.24242 311.09064 200.24242 313.21564ZM206.16429 313.21564Q206.16429 311.6844 206.47679 310.7625Q206.78929 309.825 207.39867 309.325Q208.02367 308.825 208.96117 308.825Q209.64867 308.825 210.16429 309.10626Q210.69554 309.3875 211.03929 309.91876Q211.38304 310.4344 211.57054 311.1844Q211.75804 311.9344 211.75804 313.21564Q211.75804 314.73126 211.44554 315.65314Q211.14867 316.575 210.52367 317.09064Q209.91429 317.59064 208.96117 317.59064Q207.72679 317.59064 207.00804 316.7Q206.16429 315.6375 206.16429 313.21564ZM207.24242 313.21564Q207.24242 315.325 207.74242 316.02814Q208.24242 316.73126 208.96117 316.73126Q209.69554 316.73126 210.17992 316.02814Q210.67992 315.325 210.67992 313.21564Q210.67992 311.09064 210.17992 310.40314Q209.69554 309.7 208.94554 309.7Q208.22679 309.7 207.78929 310.3094Q207.24242 311.09064 207.24242 313.21564Z" fill-rule="nonzero"/><path fill="#000000" d="M280.92322 309.98126L280.92322 308.96564L286.48572 308.96564L286.48572 309.79376Q285.67322 310.66876 284.86072 312.1219Q284.06384 313.5594 283.62634 315.09064Q283.29822 316.16876 283.2201 317.45L282.12634 317.45Q282.14197 316.4344 282.51697 314.9969Q282.9076 313.5594 283.61072 312.23126Q284.32947 310.90314 285.14197 309.98126L280.92322 309.98126ZM287.86072 315.2L288.9701 315.10626Q289.0951 315.91876 289.5326 316.325Q289.98572 316.73126 290.62634 316.73126Q291.37634 316.73126 291.9076 316.15314Q292.43884 315.575 292.43884 314.6375Q292.43884 313.73126 291.92322 313.21564Q291.42322 312.6844 290.5951 312.6844Q290.0951 312.6844 289.67322 312.91876Q289.26697 313.15314 289.0326 313.5125L288.04822 313.3875L288.87634 308.98126L293.1576 308.98126L293.1576 309.98126L289.7201 309.98126L289.26697 312.29376Q290.0326 311.7469 290.87634 311.7469Q292.00134 311.7469 292.76697 312.52814Q293.54822 313.3094 293.54822 314.54376Q293.54822 315.7 292.87634 316.5594Q292.04822 317.59064 290.62634 317.59064Q289.45447 317.59064 288.70447 316.9344Q287.9701 316.27814 287.86072 315.2ZM294.86072 313.21564Q294.86072 311.6844 295.17322 310.7625Q295.48572 309.825 296.0951 309.325Q296.7201 308.825 297.6576 308.825Q298.3451 308.825 298.86072 309.10626Q299.39197 309.3875 299.73572 309.91876Q300.07947 310.4344 300.26697 311.1844Q300.45447 311.9344 300.45447 313.21564Q300.45447 314.73126 300.14197 315.65314Q299.8451 316.575 299.2201 317.09064Q298.61072 317.59064 297.6576 317.59064Q296.42322 317.59064 295.70447 316.7Q294.86072 315.6375 294.86072 313.21564ZM295.93884 313.21564Q295.93884 315.325 296.43884 316.02814Q296.93884 316.73126 297.6576 316.73126Q298.39197 316.73126 298.87634 316.02814Q299.37634 315.325 299.37634 313.21564Q299.37634 311.09064 298.87634 310.40314Q298.39197 309.7 297.64197 309.7Q296.92322 309.7 296.48572 310.3094Q295.93884 311.09064 295.93884 313.21564ZM301.86072 313.21564Q301.86072 311.6844 302.17322 310.7625Q302.48572 309.825 303.0951 309.325Q303.7201 308.825 304.6576 308.825Q305.3451 308.825 305.86072 309.10626Q306.39197 309.3875 306.73572 309.91876Q307.07947 310.4344 307.26697 311.1844Q307.45447 311.9344 307.45447 313.21564Q307.45447 314.73126 307.14197 315.65314Q306.8451 316.575 306.2201 317.09064Q305.61072 317.59064 304.6576 317.59064Q303.42322 317.59064 302.70447 316.7Q301.86072 315.6375 301.86072 313.21564ZM302.93884 313.21564Q302.93884 315.325 303.43884 316.02814Q303.93884 316.73126 304.6576 316.73126Q305.39197 316.73126 305.87634 316.02814Q306.37634 315.325 306.37634 313.21564Q306.37634 311.09064 305.87634 310.40314Q305.39197 309.7 304.64197 309.7Q303.92322 309.7 303.48572 310.3094Q302.93884 311.09064 302.93884 313.21564Z" fill-rule="nonzero"/><path fill="#000000" d="M377.02588 317.45L375.979 317.45L375.979 310.73126Q375.58838 311.09064 374.96338 311.46564Q374.354 311.825 373.86963 311.9969L373.86963 310.98126Q374.74463 310.5594 375.40088 309.98126Q376.07275 309.3875 376.354 308.825L377.02588 308.825L377.02588 317.45ZM380.05713 313.21564Q380.05713 311.6844 380.36963 310.7625Q380.68213 309.825 381.2915 309.325Q381.9165 308.825 382.854 308.825Q383.5415 308.825 384.05713 309.10626Q384.58838 309.3875 384.93213 309.91876Q385.27588 310.4344 385.46338 311.1844Q385.65088 311.9344 385.65088 313.21564Q385.65088 314.73126 385.33838 315.65314Q385.0415 316.575 384.4165 317.09064Q383.80713 317.59064 382.854 317.59064Q381.61963 317.59064 380.90088 316.7Q380.05713 315.6375 380.05713 313.21564ZM381.13525 313.21564Q381.13525 315.325 381.63525 316.02814Q382.13525 316.73126 382.854 316.73126Q383.58838 316.73126 384.07275 316.02814Q384.57275 315.325 384.57275 313.21564Q384.57275 311.09064 384.07275 310.40314Q383.58838 309.7 382.83838 309.7Q382.11963 309.7 381.68213 310.3094Q381.13525 311.09064 381.13525 313.21564ZM387.05713 313.21564Q387.05713 311.6844 387.36963 310.7625Q387.68213 309.825 388.2915 309.325Q388.9165 308.825 389.854 308.825Q390.5415 308.825 391.05713 309.10626Q391.58838 309.3875 391.93213 309.91876Q392.27588 310.4344 392.46338 311.1844Q392.65088 311.9344 392.65088 313.21564Q392.65088 314.73126 392.33838 315.65314Q392.0415 316.575 391.4165 317.09064Q390.80713 317.59064 389.854 317.59064Q388.61963 317.59064 387.90088 316.7Q387.05713 315.6375 387.05713 313.21564ZM388.13525 313.21564Q388.13525 315.325 388.63525 316.02814Q389.13525 316.73126 389.854 316.73126Q390.58838 316.73126 391.07275 316.02814Q391.57275 315.325 391.57275 313.21564Q391.57275 311.09064 391.07275 310.40314Q390.58838 309.7 389.83838 309.7Q389.11963 309.7 388.68213 310.3094Q388.13525 311.09064 388.13525 313.21564ZM394.05713 313.21564Q394.05713 311.6844 394.36963 310.7625Q394.68213 309.825 395.2915 309.325Q395.9165 308.825 396.854 308.825Q397.5415 308.825 398.05713 309.10626Q398.58838 309.3875 398.93213 309.91876Q399.27588 310.4344 399.46338 311.1844Q399.65088 311.9344 399.65088 313.21564Q399.65088 314.73126 399.33838 315.65314Q399.0415 316.575 398.4165 317.09064Q397.80713 317.59064 396.854 317.59064Q395.61963 317.59064 394.90088 316.7Q394.05713 315.6375 394.05713 313.21564ZM395.13525 313.21564Q395.13525 315.325 395.63525 316.02814Q396.13525 316.73126 396.854 316.73126Q397.58838 316.73126 398.07275 316.02814Q398.57275 315.325 398.57275 313.21564Q398.57275 311.09064 398.07275 310.40314Q397.58838 309.7 396.83838 309.7Q396.11963 309.7 395.68213 310.3094Q395.13525 311.09064 395.13525 313.21564ZM401.05713 313.21564Q401.05713 311.6844 401.36963 310.7625Q401.68213 309.825 402.2915 309.325Q402.9165 308.825 403.854 308.825Q404.5415 308.825 405.05713 309.10626Q405.58838 309.3875 405.93213 309.91876Q406.27588 310.4344 406.46338 311.1844Q406.65088 311.9344 406.65088 313.21564Q406.65088 314.73126 406.33838 315.65314Q406.0415 316.575 405.4165 317.09064Q404.80713 317.59064 403.854 317.59064Q402.61963 317.59064 401.90088 316.7Q401.05713 315.6375 401.05713 313.21564ZM402.13525 313.21564Q402.13525 315.325 402.63525 316.02814Q403.13525 316.73126 403.854 316.73126Q404.58838 316.73126 405.07275 316.02814Q405.57275 315.325 405.57275 313.21564Q405.57275 311.09064 405.07275 310.40314Q404.58838 309.7 403.83838 309.7Q403.11963 309.7 402.68213 310.3094Q402.13525 311.09064 402.13525 313.21564Z" fill-rule="nonzero"/><path fill="#000000" d="M472.72232 317.45L471.67545 317.45L471.67545 310.73126Q471.28482 311.09064 470.65982 311.46564Q470.05045 311.825 469.56607 311.9969L469.56607 310.98126Q470.44107 310.5594 471.09732 309.98126Q471.7692 309.3875 472.05045 308.825L472.72232 308.825L472.72232 317.45ZM481.30045 316.4344L481.30045 317.45L475.61295 317.45Q475.61295 317.075 475.73795 316.71564Q475.9567 316.1375 476.42545 315.575Q476.90982 315.0125 477.81607 314.27814Q479.22232 313.1219 479.7067 312.45Q480.2067 311.77814 480.2067 311.1844Q480.2067 310.5594 479.75357 310.1375Q479.30045 309.7 478.5817 309.7Q477.81607 309.7 477.36295 310.15314Q476.90982 310.60626 476.8942 311.41876L475.81607 311.3094Q475.92545 310.09064 476.6442 309.46564Q477.37857 308.825 478.61295 308.825Q479.84732 308.825 480.56607 309.5125Q481.28482 310.2 481.28482 311.21564Q481.28482 311.73126 481.06607 312.23126Q480.86295 312.71564 480.36295 313.27814Q479.87857 313.825 478.75357 314.77814Q477.80045 315.575 477.5192 315.8719Q477.25357 316.15314 477.0817 316.4344L481.30045 316.4344ZM482.75357 315.2L483.86295 315.10626Q483.98795 315.91876 484.42545 316.325Q484.87857 316.73126 485.5192 316.73126Q486.2692 316.73126 486.80045 316.15314Q487.3317 315.575 487.3317 314.6375Q487.3317 313.73126 486.81607 313.21564Q486.31607 312.6844 485.48795 312.6844Q484.98795 312.6844 484.56607 312.91876Q484.15982 313.15314 483.92545 313.5125L482.94107 313.3875L483.7692 308.98126L488.05045 308.98126L488.05045 309.98126L484.61295 309.98126L484.15982 312.29376Q484.92545 311.7469 485.7692 311.7469Q486.8942 311.7469 487.65982 312.52814Q488.44107 313.3094 488.44107 314.54376Q488.44107 315.7 487.7692 316.5594Q486.94107 317.59064 485.5192 317.59064Q484.34732 317.59064 483.59732 316.9344Q482.86295 316.27814 482.75357 315.2ZM489.75357 313.21564Q489.75357 311.6844 490.06607 310.7625Q490.37857 309.825 490.98795 309.325Q491.61295 308.825 492.55045 308.825Q493.23795 308.825 493.75357 309.10626Q494.28482 309.3875 494.62857 309.91876Q494.97232 310.4344 495.15982 311.1844Q495.34732 311.9344 495.34732 313.21564Q495.34732 314.73126 495.03482 315.65314Q494.73795 316.575 494.11295 317.09064Q493.50357 317.59064 492.55045 317.59064Q491.31607 317.59064 490.59732 316.7Q489.75357 315.6375 489.75357 313.21564ZM490.8317 313.21564Q490.8317 315.325 491.3317 316.02814Q491.8317 316.73126 492.55045 316.73126Q493.28482 316.73126 493.7692 316.02814Q494.2692 315.325 494.2692 313.21564Q494.2692 311.09064 493.7692 310.40314Q493.28482 309.7 492.53482 309.7Q491.81607 309.7 491.37857 310.3094Q490.8317 311.09064 490.8317 313.21564ZM496.75357 313.21564Q496.75357 311.6844 497.06607 310.7625Q497.37857 309.825 497.98795 309.325Q498.61295 308.825 499.55045 308.825Q500.23795 308.825 500.75357 309.10626Q501.28482 309.3875 501.62857 309.91876Q501.97232 310.4344 502.15982 311.1844Q502.34732 311.9344 502.34732 313.21564Q502.34732 314.73126 502.03482 315.65314Q501.73795 316.575 501.11295 317.09064Q500.50357 317.59064 499.55045 317.59064Q498.31607 317.59064 497.59732 316.7Q496.75357 315.6375 496.75357 313.21564ZM497.8317 313.21564Q497.8317 315.325 498.3317 316.02814Q498.8317 316.73126 499.55045 316.73126Q500.28482 316.73126 500.7692 316.02814Q501.2692 315.325 501.2692 313.21564Q501.2692 311.09064 500.7692 310.40314Q500.28482 309.7 499.53482 309.7Q498.81607 309.7 498.37857 310.3094Q497.8317 311.09064 497.8317 313.21564Z" fill-rule="nonzero"/><path fill="#000000" d="M568.41876 317.45L567.3719 317.45L567.3719 310.73126Q566.98126 311.09064 566.35626 311.46564Q565.7469 311.825 565.2625 311.9969L565.2625 310.98126Q566.1375 310.5594 566.79376 309.98126Q567.46564 309.3875 567.7469 308.825L568.41876 308.825L568.41876 317.45ZM571.45 315.2L572.5594 315.10626Q572.6844 315.91876 573.1219 316.325Q573.575 316.73126 574.21564 316.73126Q574.96564 316.73126 575.4969 316.15314Q576.02814 315.575 576.02814 314.6375Q576.02814 313.73126 575.5125 313.21564Q575.0125 312.6844 574.1844 312.6844Q573.6844 312.6844 573.2625 312.91876Q572.85626 313.15314 572.6219 313.5125L571.6375 313.3875L572.46564 308.98126L576.7469 308.98126L576.7469 309.98126L573.3094 309.98126L572.85626 312.29376Q573.6219 311.7469 574.46564 311.7469Q575.59064 311.7469 576.35626 312.52814Q577.1375 313.3094 577.1375 314.54376Q577.1375 315.7 576.46564 316.5594Q575.6375 317.59064 574.21564 317.59064Q573.04376 317.59064 572.29376 316.9344Q571.5594 316.27814 571.45 315.2ZM578.45 313.21564Q578.45 311.6844 578.7625 310.7625Q579.075 309.825 579.6844 309.325Q580.3094 308.825 581.2469 308.825Q581.9344 308.825 582.45 309.10626Q582.98126 309.3875 583.325 309.91876Q583.66876 310.4344 583.85626 311.1844Q584.04376 311.9344 584.04376 313.21564Q584.04376 314.73126 583.73126 315.65314Q583.4344 316.575 582.8094 317.09064Q582.2 317.59064 581.2469 317.59064Q580.0125 317.59064 579.29376 316.7Q578.45 315.6375 578.45 313.21564ZM579.52814 313.21564Q579.52814 315.325 580.02814 316.02814Q580.52814 316.73126 581.2469 316.73126Q581.98126 316.73126 582.46564 316.02814Q582.96564 315.325 582.96564 313.21564Q582.96564 311.09064 582.46564 310.40314Q581.98126 309.7 581.23126 309.7Q580.5125 309.7 580.075 310.3094Q579.52814 311.09064 579.52814 313.21564ZM585.45 313.21564Q585.45 311.6844 585.7625 310.7625Q586.075 309.825 586.6844 309.325Q587.3094 308.825 588.2469 308.825Q588.9344 308.825 589.45 309.10626Q589.98126 309.3875 590.325 309.91876Q590.66876 310.4344 590.85626 311.1844Q591.04376 311.9344 591.04376 313.21564Q591.04376 314.73126 590.73126 315.65314Q590.4344 316.575 589.8094 317.09064Q589.2 317.59064 588.2469 317.59064Q587.0125 317.59064 586.29376 316.7Q585.45 315.6375 585.45 313.21564ZM586.52814 313.21564Q586.52814 315.325 587.02814 316.02814Q587.52814 316.73126 588.2469 316.73126Q588.98126 316.73126 589.46564 316.02814Q589.96564 315.325 589.96564 313.21564Q589.96564 311.09064 589.46564 310.40314Q588.98126 309.7 588.23126 309.7Q587.5125 309.7 587.075 310.3094Q586.52814 311.09064 586.52814 313.21564ZM592.45 313.21564Q592.45 311.6844 592.7625 310.7625Q593.075 309.825 593.6844 309.325Q594.3094 308.825 595.2469 308.825Q595.9344 308.825 596.45 309.10626Q596.98126 309.3875 597.325 309.91876Q597.66876 310.4344 597.85626 311.1844Q598.04376 311.9344 598.04376 313.21564Q598.04376 314.73126 597.73126 315.65314Q597.4344 316.575 596.8094 317.09064Q596.2 317.59064 595.2469 317.59064Q594.0125 317.59064 593.29376 316.7Q592.45 315.6375 592.45 313.21564ZM593.52814 313.21564Q593.52814 315.325 594.02814 316.02814Q594.52814 316.73126 595.2469 316.73126Q595.98126 316.73126 596.46564 316.02814Q596.96564 315.325 596.96564 313.21564Q596.96564 311.09064 596.46564 310.40314Q595.98126 309.7 595.23126 309.7Q594.5125 309.7 594.075 310.3094Q593.52814 311.09064 593.52814 313.21564Z" fill-rule="nonzero"/><path stroke="#4285f4" stroke-width="4.0" stroke-linecap="butt" d="M224.0 61.916668L236.0 61.916668" fill-rule="nonzero"/><path fill="#1a1a1a" d="M244.92188 65.916664L244.92188 57.322914L248.17188 57.322914Q249.01562 57.322914 249.46875 57.40104Q250.10938 57.510414 250.53125 57.80729Q250.96875 58.104164 251.21875 58.635414Q251.48438 59.166664 251.48438 59.80729Q251.48438 60.90104 250.78125 61.666664Q250.09375 62.416664 248.26562 62.416664L246.0625 62.416664L246.0625 65.916664L244.92188 65.916664ZM246.0625 61.416664L248.28125 61.416664Q249.39062 61.416664 249.84375 61.010414Q250.3125 60.58854 250.3125 59.83854Q250.3125 59.30729 250.03125 58.93229Q249.76562 58.541664 249.32812 58.416664Q249.03125 58.33854 248.26562 58.33854L246.0625 58.33854L246.0625 61.416664ZM252.75 68.30729L252.625 67.322914Q252.96875 67.416664 253.23438 67.416664Q253.57812 67.416664 253.78125 67.291664Q254.0 67.18229 254.14062 66.979164Q254.23438 66.80729 254.46875 66.18229Q254.48438 66.104164 254.5625 65.93229L252.1875 59.697914L253.32812 59.697914L254.625 63.291664Q254.875 63.979164 255.07812 64.74479Q255.26562 64.010414 255.51562 63.322914L256.84375 59.697914L257.89062 59.697914L255.53125 66.02604Q255.14062 67.041664 254.9375 67.43229Q254.65625 67.96354 254.28125 68.197914Q253.92188 68.447914 253.42188 68.447914Q253.125 68.447914 252.75 68.30729ZM260.09375 64.979164L260.25 65.90104Q259.79688 65.99479 259.45312 65.99479Q258.875 65.99479 258.5625 65.822914Q258.25 65.635414 258.10938 65.33854Q257.98438 65.041664 257.98438 64.08854L257.98438 60.510414L257.21875 60.510414L257.21875 59.697914L257.98438 59.697914L257.98438 58.15104L259.03125 57.52604L259.03125 59.697914L260.09375 59.697914L260.09375 60.510414L259.03125 60.510414L259.03125 64.15104Q259.03125 64.604164 259.07812 64.729164Q259.14062 64.854164 259.26562 64.93229Q259.39062 65.010414 259.625 65.010414Q259.8125 65.010414 260.09375 64.979164ZM260.79688 65.916664L260.79688 57.322914L261.84375 57.322914L261.84375 60.40104Q262.57812 59.55729 263.70312 59.55729Q264.40625 59.55729 264.90625 59.83854Q265.42188 60.104164 265.64062 60.58854Q265.85938 61.05729 265.85938 61.979164L265.85938 65.916664L264.8125 65.916664L264.8125 61.979164Q264.8125 61.18229 264.46875 60.822914Q264.125 60.46354 263.5 60.46354Q263.03125 60.46354 262.60938 60.71354Q262.20312 60.947914 262.01562 61.36979Q261.84375 61.77604 261.84375 62.510414L261.84375 65.916664L260.79688 65.916664ZM267.40625 62.80729Q267.40625 61.072914 268.35938 60.24479Q269.15625 59.55729 270.3125 59.55729Q271.59375 59.55729 272.40625 60.40104Q273.23438 61.229164 273.23438 62.71354Q273.23438 63.916664 272.875 64.604164Q272.51562 65.291664 271.8125 65.68229Q271.125 66.05729 270.3125 66.05729Q269.01562 66.05729 268.20312 65.229164Q267.40625 64.385414 267.40625 62.80729ZM268.48438 62.80729Q268.48438 63.99479 269.0 64.58854Q269.53125 65.18229 270.3125 65.18229Q271.10938 65.18229 271.625 64.58854Q272.14062 63.99479 272.14062 62.77604Q272.14062 61.61979 271.60938 61.02604Q271.09375 60.43229 270.3125 60.43229Q269.53125 60.43229 269.0 61.02604Q268.48438 61.604164 268.48438 62.80729ZM274.79688 65.916664L274.79688 59.697914L275.73438 59.697914L275.73438 60.572914Q276.42188 59.55729 277.71875 59.55729Q278.28125 59.55729 278.75 59.760414Q279.23438 59.96354 279.46875 60.291664Q279.70312 60.61979 279.79688 61.05729Q279.84375 61.354164 279.84375 62.08854L279.84375 65.916664L278.79688 65.916664L278.79688 62.135414Q278.79688 61.479164 278.67188 61.166664Q278.54688 60.854164 278.23438 60.666664Q277.92188 60.46354 277.5 60.46354Q276.82812 60.46354 276.32812 60.90104Q275.84375 61.322914 275.84375 62.510414L275.84375 65.916664L274.79688 65.916664ZM286.8125 68.447914Q285.9375 67.33854 285.32812 65.86979Q284.73438 64.385414 284.73438 62.80729Q284.73438 61.416664 285.17188 60.135414Q285.70312 58.65104 286.8125 57.18229L287.5625 57.18229Q286.85938 58.40104 286.625 58.916664Q286.26562 59.729164 286.0625 60.604164Q285.8125 61.697914 285.8125 62.80729Q285.8125 65.635414 287.5625 68.447914L286.8125 68.447914ZM288.375 64.05729L289.40625 63.90104Q289.5 64.52604 289.89062 64.854164Q290.29688 65.18229 291.03125 65.18229Q291.75 65.18229 292.09375 64.90104Q292.45312 64.604164 292.45312 64.197914Q292.45312 63.83854 292.14062 63.635414Q291.92188 63.49479 291.0625 63.27604Q289.90625 62.979164 289.45312 62.77604Q289.01562 62.55729 288.78125 62.18229Q288.54688 61.80729 288.54688 61.33854Q288.54688 60.93229 288.73438 60.572914Q288.92188 60.21354 289.25 59.979164Q289.5 59.80729 289.92188 59.68229Q290.34375 59.55729 290.84375 59.55729Q291.5625 59.55729 292.10938 59.77604Q292.67188 59.979164 292.9375 60.33854Q293.20312 60.697914 293.29688 61.291664L292.26562 61.43229Q292.20312 60.96354 291.85938 60.697914Q291.53125 60.416664 290.90625 60.416664Q290.1875 60.416664 289.875 60.666664Q289.5625 60.90104 289.5625 61.229164Q289.5625 61.43229 289.6875 61.58854Q289.82812 61.760414 290.09375 61.86979Q290.25 61.93229 291.03125 62.135414Q292.15625 62.447914 292.59375 62.635414Q293.03125 62.822914 293.28125 63.18229Q293.53125 63.541664 293.53125 64.08854Q293.53125 64.61979 293.21875 65.08854Q292.92188 65.541664 292.34375 65.80729Q291.76562 66.05729 291.03125 66.05729Q289.8125 66.05729 289.17188 65.55729Q288.54688 65.041664 288.375 64.05729ZM296.48438 68.447914L295.73438 68.447914Q297.48438 65.635414 297.48438 62.80729Q297.48438 61.71354 297.23438 60.61979Q297.03125 59.74479 296.67188 58.93229Q296.4375 58.416664 295.73438 57.18229L296.48438 57.18229Q297.57812 58.65104 298.10938 60.135414Q298.5625 61.416664 298.5625 62.80729Q298.5625 64.385414 297.95312 65.86979Q297.34375 67.33854 296.48438 68.447914Z" fill-rule="nonzero"/><path stroke="#ea4335" stroke-width="4.0" stroke-linecap="butt" d="M315.0 61.916668L327.0 61.916668" fill-rule="nonzero"/><path fill="#1a1a1a" d="M342.0625 62.90104L343.1875 63.197914Q342.82812 64.58854 341.90625 65.322914Q340.98438 66.05729 339.64062 66.05729Q338.25 66.05729 337.375 65.49479Q336.5 64.93229 336.04688 63.86979Q335.59375 62.791664 335.59375 61.55729Q335.59375 60.21354 336.10938 59.21354Q336.625 58.21354 337.5625 57.697914Q338.51562 57.18229 339.65625 57.18229Q340.9375 57.18229 341.8125 57.83854Q342.70312 58.49479 343.04688 59.68229L341.92188 59.947914Q341.625 59.010414 341.04688 58.58854Q340.48438 58.15104 339.625 58.15104Q338.64062 58.15104 337.96875 58.635414Q337.3125 59.104164 337.03125 59.90104Q336.76562 60.697914 336.76562 61.55729Q336.76562 62.65104 337.07812 63.46354Q337.40625 64.27604 338.07812 64.68229Q338.75 65.08854 339.54688 65.08854Q340.5 65.08854 341.15625 64.541664Q341.82812 63.99479 342.0625 62.90104ZM347.0 64.52604L347.0 62.166664L344.67188 62.166664L344.67188 61.18229L347.0 61.18229L347.0 58.854164L348.0 58.854164L348.0 61.18229L350.34375 61.18229L350.34375 62.166664L348.0 62.166664L348.0 64.52604L347.0 64.52604ZM354.0 64.52604L354.0 62.166664L351.67188 62.166664L351.67188 61.18229L354.0 61.18229L354.0 58.854164L355.0 58.854164L355.0 61.18229L357.34375 61.18229L357.34375 62.166664L355.0 62.166664L355.0 64.52604L354.0 64.52604ZM363.8125 68.447914Q362.9375 67.33854 362.32812 65.86979Q361.73438 64.385414 361.73438 62.80729Q361.73438 61.416664 362.17188 60.135414Q362.70312 58.65104 363.8125 57.18229L364.5625 57.18229Q363.85938 58.40104 363.625 58.916664Q363.26562 59.729164 363.0625 60.604164Q362.8125 61.697914 362.8125 62.80729Q362.8125 65.635414 364.5625 68.447914L363.8125 68.447914ZM365.375 64.05729L366.40625 63.90104Q366.5 64.52604 366.89062 64.854164Q367.29688 65.18229 368.03125 65.18229Q368.75 65.18229 369.09375 64.90104Q369.45312 64.604164 369.45312 64.197914Q369.45312 63.83854 369.14062 63.635414Q368.92188 63.49479 368.0625 63.27604Q366.90625 62.979164 366.45312 62.77604Q366.01562 62.55729 365.78125 62.18229Q365.54688 61.80729 365.54688 61.33854Q365.54688 60.93229 365.73438 60.572914Q365.92188 60.21354 366.25 59.979164Q366.5 59.80729 366.92188 59.68229Q367.34375 59.55729 367.84375 59.55729Q368.5625 59.55729 369.10938 59.77604Q369.67188 59.979164 369.9375 60.33854Q370.20312 60.697914 370.29688 61.291664L369.26562 61.43229Q369.20312 60.96354 368.85938 60.697914Q368.53125 60.416664 367.90625 60.416664Q367.1875 60.416664 366.875 60.666664Q366.5625 60.90104 366.5625 61.229164Q366.5625 61.43229 366.6875 61.58854Q366.82812 61.760414 367.09375 61.86979Q367.25 61.93229 368.03125 62.135414Q369.15625 62.447914 369.59375 62.635414Q370.03125 62.822914 370.28125 63.18229Q370.53125 63.541664 370.53125 64.08854Q370.53125 64.61979 370.21875 65.08854Q369.92188 65.541664 369.34375 65.80729Q368.76562 66.05729 368.03125 66.05729Q366.8125 66.05729 366.17188 65.55729Q365.54688 65.041664 365.375 64.05729ZM373.48438 68.447914L372.73438 68.447914Q374.48438 65.635414 374.48438 62.80729Q374.48438 61.71354 374.23438 60.61979Q374.03125 59.74479 373.67188 58.93229Q373.4375 58.416664 372.73438 57.18229L373.48438 57.18229Q374.57812 58.65104 375.10938 60.135414Q375.5625 61.416664 375.5625 62.80729Q375.5625 64.385414 374.95312 65.86979Q374.34375 67.33854 373.48438 68.447914Z" fill-rule="nonzero"/><path fill="#757575" d="M20.096874 37.55L20.096874 23.2375L25.4875 23.2375Q26.925 23.2375 27.675 23.3625Q28.721874 23.55 29.440624 24.05Q30.159374 24.534374 30.58125 25.425Q31.01875 26.315624 31.01875 27.378124Q31.01875 29.20625 29.846874 30.471874Q28.690624 31.721874 25.659374 31.721874L21.9875 31.721874L21.9875 37.55L20.096874 37.55ZM21.9875 30.034374L25.690624 30.034374Q27.51875 30.034374 28.284374 29.3625Q29.065624 28.675 29.065624 27.425Q29.065624 26.534374 28.6125 25.89375Q28.159374 25.253124 27.425 25.05Q26.940624 24.925 25.64375 24.925L21.9875 24.925L21.9875 30.034374ZM32.784374 41.55L32.596874 39.89375Q33.175 40.05 33.596874 40.05Q34.190624 40.05 34.534374 39.846874Q34.89375 39.659374 35.1125 39.315624Q35.284374 39.05 35.659374 38.003124Q35.70625 37.846874 35.815624 37.565624L31.878124 27.175L33.76875 27.175L35.925 33.190624Q36.346874 34.33125 36.675 35.58125Q36.9875 34.378124 37.39375 33.221874L39.6125 27.175L41.378124 27.175L37.425 37.721874Q36.8 39.440624 36.440624 40.08125Q35.971874 40.95625 35.3625 41.346874Q34.76875 41.753124 33.925 41.753124Q33.409374 41.753124 32.784374 41.55ZM46.70625 35.971874L46.95625 37.534374Q46.221874 37.690624 45.628124 37.690624Q44.675 37.690624 44.14375 37.39375Q43.628124 37.08125 43.409374 36.596874Q43.190624 36.096874 43.190624 34.51875L43.190624 28.55L41.909374 28.55L41.909374 27.175L43.190624 27.175L43.190624 24.6125L44.940624 23.55L44.940624 27.175L46.70625 27.175L46.70625 28.55L44.940624 28.55L44.940624 34.6125Q44.940624 35.3625 45.034374 35.58125Q45.128124 35.784374 45.33125 35.925Q45.55 36.05 45.940624 36.05Q46.221874 36.05 46.70625 35.971874ZM48.8625 37.55L48.8625 23.2375L50.628124 23.2375L50.628124 28.3625Q51.8625 26.940624 53.7375 26.940624Q54.878124 26.940624 55.721874 27.39375Q56.58125 27.846874 56.940624 28.659374Q57.315624 29.45625 57.315624 30.971874L57.315624 37.55L55.565624 37.55L55.565624 30.971874Q55.565624 29.659374 54.9875 29.065624Q54.409374 28.45625 53.378124 28.45625Q52.596874 28.45625 51.89375 28.8625Q51.20625 29.26875 50.909374 29.971874Q50.628124 30.659374 50.628124 31.878124L50.628124 37.55L48.8625 37.55ZM58.221874 32.3625Q58.221874 29.4875 59.815624 28.096874Q61.159374 26.940624 63.08125 26.940624Q65.22188 26.940624 66.56563 28.346874Q67.925 29.753124 67.925 32.221874Q67.925 34.221874 67.33125 35.378124Q66.7375 36.51875 65.58125 37.159374Q64.44063 37.784374 63.08125 37.784374Q60.89375 37.784374 59.55 36.39375Q58.221874 34.9875 58.221874 32.3625ZM60.01875 32.3625Q60.01875 34.3625 60.878124 35.346874Q61.753124 36.33125 63.08125 36.33125Q64.39375 36.33125 65.25313 35.346874Q66.12813 34.346874 66.12813 32.3Q66.12813 30.378124 65.25313 29.39375Q64.37813 28.39375 63.08125 28.39375Q61.753124 28.39375 60.878124 29.39375Q60.01875 30.378124 60.01875 32.3625ZM69.8625 37.55L69.8625 27.175L71.45625 27.175L71.45625 28.659374Q72.59688 26.940624 74.75313 26.940624Q75.69063 26.940624 76.47188 27.284374Q77.26875 27.6125 77.65938 28.159374Q78.05 28.70625 78.20625 29.45625Q78.3 29.95625 78.3 31.175L78.3 37.55L76.53438 37.55L76.53438 31.2375Q76.53438 30.159374 76.33125 29.628124Q76.12813 29.096874 75.59688 28.784374Q75.08125 28.471874 74.37813 28.471874Q73.25313 28.471874 72.44063 29.190624Q71.62813 29.89375 71.62813 31.878124L71.62813 37.55L69.8625 37.55ZM89.22188 41.753124Q87.76875 39.925 86.76875 37.471874Q85.76875 35.003124 85.76875 32.3625Q85.76875 30.034374 86.51875 27.909374Q87.39375 25.440624 89.22188 22.9875L90.4875 22.9875Q89.3 25.01875 88.925 25.89375Q88.33125 27.2375 87.9875 28.70625Q87.56563 30.534374 87.56563 32.378124Q87.56563 37.065624 90.4875 41.753124L89.22188 41.753124ZM92.15938 34.45625L93.90938 34.175Q94.05 35.221874 94.72188 35.784374Q95.39375 36.33125 96.59688 36.33125Q97.8 36.33125 98.37813 35.846874Q98.97188 35.346874 98.97188 34.690624Q98.97188 34.096874 98.45625 33.753124Q98.09688 33.51875 96.65938 33.159374Q94.72188 32.659374 93.97188 32.315624Q93.2375 31.95625 92.84688 31.33125Q92.45625 30.690624 92.45625 29.925Q92.45625 29.2375 92.76875 28.64375Q93.09688 28.05 93.64375 27.659374Q94.05 27.3625 94.75313 27.159374Q95.47188 26.940624 96.28438 26.940624Q97.50313 26.940624 98.425 27.3Q99.34688 27.64375 99.78438 28.253124Q100.22188 28.846874 100.39375 29.846874L98.675 30.08125Q98.55 29.284374 97.9875 28.846874Q97.425 28.39375 96.40938 28.39375Q95.19063 28.39375 94.675 28.8Q94.15938 29.190624 94.15938 29.721874Q94.15938 30.065624 94.37813 30.346874Q94.58125 30.628124 95.05 30.815624Q95.31563 30.909374 96.59688 31.253124Q98.47188 31.753124 99.20625 32.08125Q99.94063 32.39375 100.3625 33.003124Q100.78438 33.596874 100.78438 34.503124Q100.78438 35.378124 100.26875 36.159374Q99.75313 36.940624 98.78438 37.3625Q97.81563 37.784374 96.59688 37.784374Q94.58125 37.784374 93.51875 36.940624Q92.45625 36.096874 92.15938 34.45625ZM104.01875 41.753124L102.76875 41.753124Q105.675 37.065624 105.675 32.378124Q105.675 30.534374 105.26875 28.7375Q104.925 27.26875 104.33125 25.925Q103.95625 25.034374 102.76875 22.9875L104.01875 22.9875Q105.8625 25.440624 106.7375 27.909374Q107.4875 30.034374 107.4875 32.3625Q107.4875 35.003124 106.47188 37.471874Q105.47188 39.925 104.01875 41.753124ZM122.97188 34.20625L124.78438 34.440624Q124.3625 36.01875 123.19063 36.909374Q122.03438 37.784374 120.22188 37.784374Q117.95625 37.784374 116.6125 36.39375Q115.28438 34.9875 115.28438 32.45625Q115.28438 29.83125 116.62813 28.39375Q117.97188 26.940624 120.12813 26.940624Q122.20625 26.940624 123.51875 28.3625Q124.84688 29.76875 124.84688 32.346874Q124.84688 32.503124 124.83125 32.815624L117.09688 32.815624Q117.19063 34.51875 118.06563 35.425Q118.94063 36.33125 120.2375 36.33125Q121.20625 36.33125 121.87813 35.83125Q122.56563 35.315624 122.97188 34.20625ZM117.19063 31.3625L122.9875 31.3625Q122.87813 30.065624 122.33125 29.409374Q121.4875 28.39375 120.14375 28.39375Q118.94063 28.39375 118.1125 29.20625Q117.28438 30.003124 117.19063 31.3625ZM143.31563 32.534374L145.20625 33.003124Q144.6125 35.346874 143.06563 36.58125Q141.51875 37.8 139.26875 37.8Q136.95625 37.8 135.50313 36.8625Q134.06563 35.909374 133.3 34.128124Q132.55 32.33125 132.55 30.284374Q132.55 28.05 133.39375 26.39375Q134.25313 24.721874 135.83125 23.8625Q137.40938 22.9875 139.3 22.9875Q141.45625 22.9875 142.90938 24.08125Q144.37813 25.175 144.95625 27.159374L143.09688 27.596874Q142.59688 26.034374 141.64375 25.33125Q140.70625 24.6125 139.26875 24.6125Q137.6125 24.6125 136.50313 25.409374Q135.39375 26.190624 134.94063 27.534374Q134.50313 28.8625 134.50313 30.26875Q134.50313 32.096874 135.03438 33.471874Q135.56563 34.83125 136.69063 35.503124Q137.81563 36.175 139.1125 36.175Q140.70625 36.175 141.81563 35.253124Q142.925 34.33125 143.31563 32.534374ZM150.56563 35.2375L150.56563 31.315624L146.65938 31.315624L146.65938 29.675L150.56563 29.675L150.56563 25.76875L152.22188 25.76875L152.22188 29.675L156.1125 29.675L156.1125 31.315624L152.22188 31.315624L152.22188 35.2375L150.56563 35.2375ZM162.56563 35.2375L162.56563 31.315624L158.65938 31.315624L158.65938 29.675L162.56563 29.675L162.56563 25.76875L164.22188 25.76875L164.22188 29.675L168.1125 29.675L168.1125 31.315624L164.22188 31.315624L164.22188 35.2375L162.56563 35.2375ZM180.22188 41.753124Q178.76875 39.925 177.76875 37.471874Q176.76875 35.003124 176.76875 32.3625Q176.76875 30.034374 177.51875 27.909374Q178.39375 25.440624 180.22188 22.9875L181.4875 22.9875Q180.3 25.01875 179.925 25.89375Q179.33125 27.2375 178.9875 28.70625Q178.56563 30.534374 178.56563 32.378124Q178.56563 37.065624 181.4875 41.753124L180.22188 41.753124ZM183.15938 34.45625L184.90938 34.175Q185.05 35.221874 185.72188 35.784374Q186.39375 36.33125 187.59688 36.33125Q188.8 36.33125 189.37813 35.846874Q189.97188 35.346874 189.97188 34.690624Q189.97188 34.096874 189.45625 33.753124Q189.09688 33.51875 187.65938 33.159374Q185.72188 32.659374 184.97188 32.315624Q184.2375 31.95625 183.84688 31.33125Q183.45625 30.690624 183.45625 29.925Q183.45625 29.2375 183.76875 28.64375Q184.09688 28.05 184.64375 27.659374Q185.05 27.3625 185.75313 27.159374Q186.47188 26.940624 187.28438 26.940624Q188.50313 26.940624 189.425 27.3Q190.34688 27.64375 190.78438 28.253124Q191.22188 28.846874 191.39375 29.846874L189.675 30.08125Q189.55 29.284374 188.9875 28.846874Q188.425 28.39375 187.40938 28.39375Q186.19063 28.39375 185.675 28.8Q185.15938 29.190624 185.15938 29.721874Q185.15938 30.065624 185.37813 30.346874Q185.58125 30.628124 186.05 30.815624Q186.31563 30.909374 187.59688 31.253124Q189.47188 31.753124 190.20625 32.08125Q190.94063 32.39375 191.3625 33.003124Q191.78438 33.596874 191.78438 34.503124Q191.78438 35.378124 191.26875 36.159374Q190.75313 36.940624 189.78438 37.3625Q188.81563 37.784374 187.59688 37.784374Q185.58125 37.784374 184.51875 36.940624Q183.45625 36.096874 183.15938 34.45625ZM195.01875 41.753124L193.76875 41.753124Q196.675 37.065624 196.675 32.378124Q196.675 30.534374 196.26875 28.7375Q195.925 27.26875 195.33125 25.925Q194.95625 25.034374 193.76875 22.9875L195.01875 22.9875Q196.8625 25.440624 197.7375 27.909374Q198.4875 30.034374 198.4875 32.3625Q198.4875 35.003124 197.47188 37.471874Q196.47188 39.925 195.01875 41.753124Z" fill-rule="nonzero"/></svg>